HIERARCHY
ROOT ui
{
	 OFFSET 0 0 0
	 CHANNELS 3 XPosition YPosition Z Position
	 EndSite
	 {
	 OFFSET 0 -1 0
	 }
}
ROOT li
{
	 OFFSET 0 0 0
	 CHANNELS 3 XPosition YPosition Z Position
	 EndSite
	 {
	 OFFSET 0 -1 0
	 }
}
ROOT ul
{
	 OFFSET 0 0 0
	 CHANNELS 3 XPosition YPosition Z Position
	 EndSite
	 {
	 OFFSET 0 -1 0
	 }
}
ROOT ll
{
	 OFFSET 0 0 0
	 CHANNELS 3 XPosition YPosition Z Position
	 EndSite
	 {
	 OFFSET 0 -1 0
	 }
}
ROOT tt
{
	 OFFSET 0 0 0
	 CHANNELS 3 XPosition YPosition Z Position
	 EndSite
	 {
	 OFFSET 0 -1 0
	 }
}
ROOT tb
{
	 OFFSET 0 0 0
	 CHANNELS 3 XPosition YPosition Z Position
	 EndSite
	 {
	 OFFSET 0 -1 0
	 }
}
ROOT td
{
	 OFFSET 0 0 0
	 CHANNELS 3 XPosition YPosition Z Position
	 EndSite
	 {
	 OFFSET 0 -1 0
	 }
}
ROOT v
{
	 OFFSET 0 0 0
	 CHANNELS 3 XPosition YPosition Z Position
	 EndSite
	 {
	 OFFSET 0 -1 0
	 }
}
ROOT bn
{
	 OFFSET 0 0 0
	 CHANNELS 3 XPosition YPosition Z Position
	 EndSite
	 {
	 OFFSET 0 -1 0
	 }
}
MOTION
Frames: 21
Frame Time: 0.002
-0.008319549560546875	4.2414799332618714E-4	0		0.4694140625	-2.419172119140625	0		-1.0364793701171875	0.054131248474121096	0		-0.8710260620117187	-2.48150390625	0		1.584995361328125	-0.46818621826171875	0		3.282107666015625	0.043394805908203125	0		4.63997314453125	0.023377458572387697	0		5.61238525390625	0.08776003265380859	0		-0.05158940124511719	5.9373427734375	0		
-0.018843883514404296	0.0016365790367126466	0		0.4660698547363281	-2.421045654296875	0		-0.9640430908203125	0.05266056823730469	0		-0.8374280395507813	-2.4872138671875	0		1.5834964599609376	-0.4679880065917969	0		3.286423828125	0.03664725112915039	0		4.63842578125	0.023876882553100585	0		5.62082958984375	0.08816474914550781	0		-0.06892676544189454	5.92666748046875	0		
-0.023465906143188477	-0.0012696050405502318	0		0.43780624389648437	-2.41744970703125	0		-1.0396005859375	0.05400624465942383	0		-0.8756832885742187	-2.483557861328125	0		1.59580419921875	-0.47705648803710937	0		3.25989697265625	0.039485157012939455	0		4.63685791015625	0.024375259399414064	0		5.60925732421875	0.08895018005371094	0		-0.0710801773071289	5.92669873046875	0		
0.05685216522216797	-0.00878485107421875	0		0.4654631042480469	-2.418921142578125	0		-1.0411600341796876	0.05393781661987305	0		-0.8749585571289062	-2.4816484375	0		1.56047216796875	-0.46722879028320313	0		3.28814501953125	0.029270912170410158	0		4.6291328125	0.015973854064941406	0		5.61765478515625	0.08734032440185546	0		-0.19041659545898437	5.91693359375	0		
-0.011439905166625977	0.003501826047897339	0		0.4184671630859375	-2.4029912109375	0		-1.030471923828125	0.06463931274414063	0		-0.8701267700195312	-2.47581787109375	0		1.5861312255859374	-0.46056552124023437	0		3.2889873046875	0.04856240844726562	0		4.6337880859375	0.02531708526611328	0		5.6209658203125	0.07879767608642578	0		-0.17729446411132813	5.926658203125	0		
0.05610787963867187	0.002229818105697632	0		0.4670427856445313	-2.413868896484375	0		-0.96200439453125	0.05925983047485352	0		-0.8364300537109375	-2.480529296875	0		1.58065771484375	-0.4643327941894531	0		3.274470703125	0.04511283493041992	0		4.6443251953125	0.024518041610717772	0		5.60887548828125	0.09851151275634766	0		-0.0620323486328125	5.93747265625	0		
-0.017281429290771484	5.83765983581543E-4	0		0.43486221313476564	-2.415244140625	0		-1.0413973388671875	0.05764226913452149	0		-0.8416656494140625	-2.4855126953125	0		1.5972723388671874	-0.4685281982421875	0		3.27312109375	0.04538977813720703	0		4.630998046875	0.026129838943481445	0		5.6133720703125	0.09086880493164062	0		-0.06386281967163086	5.93747705078125	0		
0.04826922607421875	-0.011656387329101563	0		0.4607488098144531	-2.418710693359375	0		-1.0467091064453125	0.05363951873779297	0		-0.8816882934570313	-2.48385302734375	0		1.5750955810546876	-0.46701931762695315	0		3.277753173828125	0.03852536010742187	0		4.62976171875	0.0264770450592041	0		5.60796484375	0.08236521911621093	0		-0.06554143524169923	5.93747265625	0		
-0.028604434967041015	0.001738500952720642	0		0.4059046325683594	-2.41269287109375	0		-1.0437484130859376	0.05748526382446289	0		-0.8785564575195313	-2.47999609375	0		1.5740181884765625	-0.4669221496582031	0		3.270771728515625	0.04584697723388672	0		4.63448388671875	0.01767112922668457	0		5.601017578125	0.09184373474121094	0		-0.20043438720703124	5.91791796875	0		
0.05637031555175781	-0.0018631830215454102	0		0.46306484985351565	-2.41375390625	0		-1.03659814453125	0.064256591796875	0		-0.877345947265625	-2.478103759765625	0		1.556148681640625	-0.4625342712402344	0		3.269795166015625	0.04602389526367188	0		4.62767578125	0.027038213729858398	0		5.60418505859375	0.10008462524414062	0		-0.201760986328125	5.9178876953125	0		
-0.02635597801208496	0.004617441177368164	0		0.4603218994140625	-2.415718505859375	0		-1.045560546875	0.05732486724853516	0		-0.8431284790039062	-2.48281640625	0		1.575319091796875	-0.4638460998535156	0		3.2689609375	0.046167816162109375	0		4.62684228515625	0.02725263786315918	0		5.6092001953125	0.09224102020263672	0		-0.06951895141601562	5.93740771484375	0		
0.049925941467285156	0.0021747150421142576	0		0.45768936157226564	-2.418693359375	0		-1.046249755859375	0.05724530029296875	0		-0.8826968994140625	-2.48217333984375	0		1.571598876953125	-0.4667523193359375	0		3.27414306640625	0.03917377853393555	0		4.62615478515625	0.027428340911865235	0		5.5985107421875	0.09264395141601563	0		-0.07047282409667968	5.9373720703125	0		
-0.029784912109375	-0.006417397975921631	0		0.45520620727539063	-2.420677001953125	0		-1.05086572265625	0.0532397689819336	0		-0.848238525390625	-2.487884521484375	0		1.57107568359375	-0.46672946166992185	0		3.2636201171875	0.04044548034667969	0		4.6256123046875	0.027570316314697266	0		5.5979658203125	0.09282384490966797	0		-0.07124569702148438	5.9373310546875	0		
0.048985782623291015	0.0020961339473724366	0		0.4569251708984375	-2.4187421875	0		-1.0431217041015626	0.061013469696044924	0		-0.8834564819335937	-2.482319580078125	0		1.5706927490234375	-0.46672027587890624	0		3.262074462890625	0.03253121185302734	0		4.61904931640625	0.01879322624206543	0		5.6082158203125	0.07377127838134766	0		-0.07086273956298828	5.9362666015625	0		
-0.02026427459716797	0.003305120944976807	0		0.4628597717285156	-2.4118876953125	0		-1.0393309326171876	0.06386194229125977	0		-0.8405807495117188	-2.479176513671875	0		1.577571044921875	-0.4598518371582031	0		3.28600830078125	0.04313827896118164	0		4.61878759765625	0.018877967834472657	0		5.60144482421875	0.10100741577148438	0		-0.18949388122558594	5.9263662109375	0		
0.05351807403564453	-0.0020915329456329345	0		0.45871365356445315	-2.41585498046875	0		-1.04351904296875	0.06085806655883789	0		-0.8796467895507812	-2.478539794921875	0		1.5943740234375	-0.4641737060546875	0		3.266932373046875	0.046511077880859376	0		4.62481689453125	0.027827754974365234	0		5.5971650390625	0.09316563415527344	0		-0.07255348968505859	5.93718115234375	0		
-0.023467060089111327	2.524909973144531E-4	0		0.45669256591796875	-2.418863525390625	0		-1.05168017578125	0.0529285774230957	0		-0.8467449951171875	-2.48621044921875	0		1.57031689453125	-0.4667599487304688	0		3.272787109375	0.039414817810058594	0		4.62480029296875	0.027866857528686523	0		5.5971474609375	0.0932244873046875	0		-0.07269012451171875	5.93712451171875	0		
0.050514659881591796	-0.006146527767181396	0		0.4298767395019531	-2.415423828125	0		-1.051596435546875	0.052853660583496095	0		-0.8855939331054687	-2.48457470703125	0		1.588315673828125	-0.4721163635253906	0		3.277725341796875	0.03132334709167481	0		4.63072021484375	0.01878017807006836	0		5.59723046875	0.09326152801513672	0		-0.07270551300048828	5.93706640625	0		
0.05375110244750977	-0.0022593150138854982	0		0.45701507568359373	-2.41896533203125	0		-1.0473609619140625	0.05670778656005859	0		-0.8833599243164062	-2.482681884765625	0		1.5505833740234376	-0.46646533203125	0		3.267162841796875	0.04650631332397461	0		4.63088427734375	0.018784603118896483	0		5.60153759765625	0.10120526123046875	0		-0.07262175750732422	5.9370068359375	0		
-0.027928619384765624	0.004167926788330078	0		0.40744522094726565	-2.408114501953125	0		-1.0390198974609375	0.0634931983947754	0		-0.8790466918945312	-2.47882177734375	0		1.5738548583984375	-0.4639245910644531	0		3.273250732421875	0.03937407684326172	0		4.6311005859375	0.01877376174926758	0		5.6165693359375	0.0909342041015625	0		-0.07246583557128906	5.9369482421875	0		
-0.022767438888549804	2.2670000791549682E-5	0		0.4595595703125	-2.416107666015625	0		-1.0428394775390626	0.06050437927246094	0		-0.878796630859375	-2.478882568359375	0		1.551041748046875	-0.4665528869628906	0		3.273485107421875	0.03933951568603516	0		4.6313349609375	0.018747758865356446	0		5.59784228515625	0.09325814056396485	0		-0.2056453857421875	5.9173046875	0		
